#!OML:ASF Y:\EmotionMaleHayes\Project 1\Capture day 1\Session 1\Male1.ASF
:FULLY-SPECIFIED
:DEGREES
731
root -2.03467 17.1748 0.778801 513.171 77.0375 513.697
lowerback 2.99442 -1.74208 -0.153656
upperback 4.47472 -2.23205 0.905864
thorax 2.96354 -1.08832 1.02647
lowerneck -23.3977 1.17087 2.04244
upperneck 33.8288 1.90486 -0.653972
head 15.9996 1.22697 -0.174052
rclavicle 9.93923e-016 3.4191e-014
rhumerus 51.3629 12.0273 -31.3942
rradius 39.9445
rwrist -3.08451
rhand 0.0157644 -30.9559
rfingers 7.12502
rthumb 25.6055 -59.2545
lclavicle 9.93923e-016 3.4191e-014
lhumerus 48.4797 -17.2158 25.8788
lradius 41.9087
lwrist 8.35699
lhand -10.205 -21.6992
lfingers 7.12502
lthumb 15.7862 7.67711
rfemur 13.3285 -6.29464 11.521
rtibia 5.82835
rfoot -20.5833 -3.90844
rtoes 11.2631
lfemur 8.24683 -3.02452 -8.58325
ltibia 32.8519
lfoot -3.47245 -2.05824
ltoes 1.95163
732
root -1.99816 17.1685 0.772669 513.801 77.1628 514.237
lowerback 2.96595 -1.767 -0.0423464
upperback 4.58266 -2.26313 1.06405
thorax 3.09445 -1.10126 1.12431
lowerneck -23.3315 1.17177 1.88122
upperneck 33.5089 1.97978 -0.737271
head 15.8285 1.21584 -0.170936
rclavicle -8.54774e-015 3.65764e-014
rhumerus 51.617 11.8469 -31.3015
rradius 39.9495
rwrist -3.13956
rhand 0.00841177 -31.1075
rfingers 7.12502
rthumb 25.5984 -59.4071
lclavicle -8.54774e-015 3.65764e-014
lhumerus 48.4554 -17.0215 25.8508
lradius 41.9403
lwrist 8.57022
lhand -9.97593 -21.5527
lfingers 7.12502
lthumb 16.0068 7.80598
rfemur 13.3701 -6.5233 11.6132
rtibia 5.87622
rfoot -20.6701 -3.52199
rtoes 12.0756
lfemur 7.50912 -2.73023 -8.33219
ltibia 32.927
lfoot -4.45915 -2.09921
ltoes 1.30115
733
root -1.95555 17.1662 0.767081 514.7 77.2121 515.121
lowerback 3.00447 -1.83931 0.126518
upperback 4.72894 -2.35393 1.18583
thorax 3.2251 -1.14037 1.15427
lowerneck -23.5227 1.21163 1.84026
upperneck 33.3524 2.09399 -0.906354
head 15.8009 1.22382 -0.214383
rclavicle -1.51076e-014 -4.77083e-015
rhumerus 51.9032 11.6432 -31.2987
rradius 39.9337
rwrist -3.2535
rhand -0.104132 -31.2067
rfingers 7.12502
rthumb 25.4906 -59.5217
lclavicle -1.51076e-014 -4.77083e-015
lhumerus 48.3179 -16.7121 25.8745
lradius 42.1711
lwrist 8.56617
lhand -9.64386 -21.4506
lfingers 7.12502
lthumb 16.3266 7.88216
rfemur 13.5505 -6.45379 11.9018
rtibia 5.8113
rfoot -20.789 -3.51641
rtoes 12.8133
lfemur 6.81168 -2.47418 -8.01047
ltibia 33.0489
lfoot -5.47962 -2.02671
ltoes -0.009626
734
root -1.91408 17.1633 0.758717 515.55 77.3455 515.913
lowerback 3.02359 -1.85657 0.376913
upperback 4.84389 -2.3714 1.25795
thorax 3.32697 -1.13947 1.08753
lowerneck -23.8146 1.28199 1.85093
upperneck 33.3903 2.17895 -0.903337
head 15.8885 1.25551 -0.196206
rclavicle -5.96354e-016 6.36111e-015
rhumerus 52.0719 11.4701 -31.2373
rradius 39.9721
rwrist -3.3388
rhand -0.168057 -31.1663
rfingers 7.12502
rthumb 25.4294 -59.4901
lclavicle -5.96354e-016 6.36111e-015
lhumerus 48.2543 -16.4885 25.9229
lradius 42.2696
lwrist 8.28778
lhand -9.56891 -21.4258
lfingers 7.12502
lthumb 16.3987 7.90101
rfemur 13.6739 -6.25078 12.2577
rtibia 5.65945
rfoot -20.9238 -3.69051
rtoes 12.811
lfemur 6.08305 -2.08945 -7.66935
ltibia 33.1115
lfoot -6.5673 -1.74613
ltoes -2.40168
735
root -1.87985 17.1597 0.751827 515.89 77.508 516.146
lowerback 3.16491 -1.81315 0.566777
upperback 4.83597 -2.30848 1.27024
thorax 3.23103 -1.10125 0.998898
lowerneck -23.8655 1.30921 1.83174
upperneck 33.3972 2.19282 -0.817886
head 15.9022 1.27062 -0.15304
rclavicle -3.97569e-016 1.74931e-014
rhumerus 52.0435 11.4304 -31.1709
rradius 40.0265
rwrist -3.49012
rhand -0.202732 -31.1258
rfingers 7.12502
rthumb 25.3962 -59.4543
lclavicle -3.97569e-016 1.74931e-014
lhumerus 48.3092 -16.5345 25.769
lradius 42.211
lwrist 8.24783
lhand -9.73093 -21.6049
lfingers 7.12502
lthumb 16.2427 7.7347
rfemur 13.6736 -5.60022 12.6631
rtibia 5.54712
rfoot -21.2054 -4.12213
rtoes 13.8781
lfemur 5.2657 -1.62871 -7.45099
ltibia 33.0954
lfoot -7.50058 -1.24803
ltoes -4.36248
736
root -1.84498 17.1577 0.743461 515.576 77.5164 515.727
lowerback 3.35216 -1.77899 0.593118
upperback 4.77913 -2.25901 1.23144
thorax 3.0634 -1.07556 0.950929
lowerneck -23.6993 1.24175 1.63962
upperneck 33.25 2.12461 -0.696741
head 15.7867 1.23519 -0.0841888
rclavicle -2.90226e-014 -7.95139e-015
rhumerus 51.9322 11.4008 -31.2247
rradius 40.0584
rwrist -3.53621
rhand -0.21419 -31.0376
rfingers 7.12502
rthumb 25.3852 -59.3677
lclavicle -2.90226e-014 -7.95139e-015
lhumerus 48.3795 -16.68 25.6389
lradius 42.2028
lwrist 8.34439
lhand -9.75594 -21.5832
lfingers 7.12502
lthumb 16.2187 7.75842
rfemur 13.753 -5.18641 12.7307
rtibia 5.39322
rfoot -21.3975 -4.46862
rtoes 14.2241
lfemur 4.42499 -1.30946 -7.52582
ltibia 33.0246
lfoot -8.17333 -0.707837
ltoes -5.28731
737
root -1.80683 17.1559 0.730503 515.47 77.47 515.501
lowerback 3.40206 -1.76549 0.619623
upperback 4.77701 -2.23915 1.21768
thorax 3.0313 -1.06438 0.92347
lowerneck -23.593 1.18749 1.54817
upperneck 33.1214 2.08193 -0.708682
head 15.6985 1.20281 -0.0841004
rclavicle -1.25234e-014 6.36111e-015
rhumerus 51.896 11.2719 -31.3385
rradius 40.0361
rwrist -3.34665
rhand -0.0807067 -30.9292
rfingers 7.12502
rthumb 25.5131 -59.241
lclavicle -1.25234e-014 6.36111e-015
lhumerus 48.424 -16.7576 25.5576
lradius 42.2509
lwrist 8.46336
lhand -9.99582 -21.676
lfingers 7.12502
lthumb 15.9877 7.68422
rfemur 13.882 -5.63025 12.4374
rtibia 5.25946
rfoot -21.3052 -4.22098
rtoes 13.1979
lfemur 3.55429 -1.13121 -7.65912
ltibia 32.9504
lfoot -8.92837 -0.236973
ltoes -6.07052
738
root -1.76558 17.1534 0.715501 515.715 77.4319 515.653
lowerback 3.38043 -1.74434 0.738033
upperback 4.81535 -2.20828 1.18996
thorax 3.07713 -1.04379 0.827461
lowerneck -23.5014 1.21394 1.74943
upperneck 33.063 2.09253 -0.855773
head 15.6547 1.21179 -0.180446
rclavicle -6.55989e-015 -6.36111e-015
rhumerus 51.7968 11.1442 -31.3665
rradius 40.0219
rwrist -3.3901
rhand -0.0588502 -30.9843
rfingers 7.12502
rthumb 25.534 -59.2931
lclavicle -6.55989e-015 -6.36111e-015
lhumerus 48.5668 -16.8264 25.4048
lradius 42.2851
lwrist 8.59189
lhand -10.2831 -21.8669
lfingers 7.12502
lthumb 15.711 7.51535
rfemur 13.9706 -6.02487 12.2696
rtibia 5.30209
rfoot -21.3431 -3.92652
rtoes 13.1008
lfemur 2.73464 -0.981553 -7.70131
ltibia 32.7701
lfoot -9.80663 0.244337
ltoes -7.40383
739
root -1.72535 17.1508 0.697923 516.211 77.5031 516.073
lowerback 3.43296 -1.69741 1.02366
upperback 4.78045 -2.14057 1.1459
thorax 2.99838 -1.00033 0.624386
lowerneck -23.1935 1.21612 1.93898
upperneck 32.9374 2.04445 -0.911597
head 15.5268 1.21096 -0.24895
rclavicle -4.77083e-015 -1.27222e-014
rhumerus 51.5517 11.1677 -31.3554
rradius 40.0726
rwrist -3.6485
rhand -0.224064 -31.2092
rfingers 7.12502
rthumb 25.3757 -59.5406
lclavicle -4.77083e-015 -1.27222e-014
lhumerus 48.7075 -17.0032 25.2828
lradius 42.3015
lwrist 8.61008
lhand -10.1281 -21.7257
lfingers 7.12502
lthumb 15.8603 7.64477
rfemur 14.0059 -5.80178 12.4931
rtibia 5.31419
rfoot -21.4877 -4.12793
rtoes 13.0549
lfemur 1.96509 -0.720636 -7.60646
ltibia 32.4399
lfoot -10.5209 0.792394
ltoes -9.05414
740
root -1.68813 17.1494 0.682686 516.537 77.6822 516.282
lowerback 3.51139 -1.75209 1.02845
upperback 5.05374 -2.20504 1.32059
thorax 3.24592 -1.0283 0.800431
lowerneck -24.0512 1.31456 1.87205
upperneck 32.9104 2.23693 -1.10687
head 15.716 1.2343 -0.279071
rclavicle 2.00773e-014 -1.59028e-015
rhumerus 52.1697 10.8251 -31.2923
rradius 40.0012
rwrist -3.5816
rhand -0.365456 -31.2768
rfingers 7.12502
rthumb 25.2403 -59.6274
lclavicle 2.00773e-014 -1.59028e-015
lhumerus 48.6487 -16.3477 25.4545
lradius 42.2396
lwrist 8.47315
lhand -9.88811 -21.6019
lfingers 7.12502
lthumb 16.0914 7.74998
rfemur 14.0202 -5.43328 12.7484
rtibia 5.15238
rfoot -21.4002 -4.50616
rtoes 12.1844
lfemur 1.12421 -0.407277 -7.51431
ltibia 32.143
lfoot -11.2408 1.2597
ltoes -9.9676
741
root -1.65008 17.1492 0.668541 516.49 77.8243 516.062
lowerback 3.96056 -1.64574 1.24376
upperback 4.66532 -2.05486 1.22168
thorax 2.57829 -0.953273 0.59546
lowerneck -23.439 1.192 1.94287
upperneck 32.9166 2.08235 -1.15753
head 15.5774 1.18481 -0.345968
rclavicle 3.04141e-014 1.59028e-014
rhumerus 51.6241 11.0983 -31.6772
rradius 39.89
rwrist -3.34656
rhand -0.351938 -31.2126
rfingers 7.12502
rthumb 25.2532 -59.5614
lclavicle 3.04141e-014 1.59028e-014
lhumerus 48.5729 -17.0318 25.211
lradius 42.3332
lwrist 8.59316
lhand -9.78726 -21.5505
lfingers 7.12502
lthumb 16.1885 7.79354
rfemur 14.0291 -5.41133 12.7211
rtibia 4.9692
rfoot -21.1763 -4.58107
rtoes 11.231
lfemur 0.241009 -0.12825 -7.55082
ltibia 31.8375
lfoot -12.2132 1.59609
ltoes -11.2227
742
root -1.61215 17.1486 0.651542 516.367 77.9442 515.787
lowerback 3.97919 -1.58617 1.39673
upperback 4.66991 -1.97121 1.14704
thorax 2.5646 -0.905765 0.432433
lowerneck -23.2568 1.1269 1.84589
upperneck 32.7367 2.01048 -1.12999
head 15.4472 1.14556 -0.333809
rclavicle -7.15625e-015 -1.59028e-015
rhumerus 51.5533 10.9799 -31.8467
rradius 39.8439
rwrist -3.24723
rhand -0.323897 -31.1904
rfingers 7.12502
rthumb 25.2801 -59.5353
lclavicle -7.15625e-015 -1.59028e-015
lhumerus 48.6695 -17.1129 25.0314
lradius 42.3097
lwrist 8.67588
lhand -9.78689 -21.5638
lfingers 7.12502
lthumb 16.1889 7.78021
rfemur 14.087 -5.59388 12.5732
rtibia 4.80135
rfoot -21.0516 -4.35248
rtoes 11.0835
lfemur -0.60536 0.150232 -7.63124
ltibia 31.4393
lfoot -13.0484 1.91735
ltoes -12.7939
743
root -1.57323 17.1466 0.635037 516.248 78.0759 515.6
lowerback 3.85168 -1.55864 1.35484
upperback 4.93291 -1.93352 1.22276
thorax 2.91302 -0.882605 0.526343
lowerneck -23.4153 1.12084 1.75582
upperneck 32.4578 2.04024 -1.2283
head 15.3526 1.12137 -0.355621
rclavicle -2.04748e-014 3.33958e-014
rhumerus 51.8154 10.6893 -31.7554
rradius 39.8787
rwrist -3.24458
rhand -0.412577 -31.1825
rfingers 7.12502
rthumb 25.1951 -59.5394
lclavicle -2.04748e-014 3.33958e-014
lhumerus 48.6774 -16.717 25.1918
lradius 42.3408
lwrist 8.56957
lhand -9.81564 -21.5915
lfingers 7.12502
lthumb 16.1612 7.75476
rfemur 14.1864 -5.39363 12.6304
rtibia 4.70547
rfoot -21.1797 -4.47868
rtoes 11.1851
lfemur -1.36995 0.433123 -7.68595
ltibia 30.9392
lfoot -13.3149 2.28744
ltoes -13.7111
744
root -1.53411 17.1462 0.618918 516.72 78.2293 516.044
lowerback 4.26202 -1.51884 1.51317
upperback 4.9472 -1.86228 1.25418
thorax 2.69439 -0.841247 0.4798
lowerneck -23.6723 1.15796 1.95151
upperneck 32.4422 2.03629 -1.3365
head 15.4075 1.12285 -0.435304
rclavicle 2.78299e-015 -6.36111e-015
rhumerus 51.7952 10.6156 -31.7905
rradius 39.8941
rwrist -3.24308
rhand -0.48107 -31.2793
rfingers 7.12502
rthumb 25.1295 -59.6455
lclavicle 2.78299e-015 -6.36111e-015
lhumerus 48.6784 -16.6595 25.1391
lradius 42.483
lwrist 8.54108
lhand -9.76516 -21.5629
lfingers 7.12502
lthumb 16.2098 7.7794
rfemur 14.2578 -5.06718 12.9214
rtibia 4.7319
rfoot -21.3866 -4.74725
rtoes 11.047
lfemur -2.14687 0.679652 -7.58367
ltibia 30.4268
lfoot -13.5806 2.65356
ltoes -14.3192
